<?xml version="1.0" encoding="utf-8"?>
<!-- Svg Vector Icons : http://www.onlinewebfonts.com/icon -->
<!DOCTYPE svg PUBLIC "-//W3C//DTD SVG 1.1//EN" "http://www.w3.org/Graphics/SVG/1.1/DTD/svg11.dtd">
<svg width="70" height="70" fill="#b388ff" version="1.1" xmlns="http://www.w3.org/2000/svg" xmlns:xlink="http://www.w3.org/1999/xlink" x="0px" y="0px" viewBox="0 0 1000 1000" enable-background="new 0 0 1000 1000" xml:space="preserve">
<metadata> Svg Vector Icons : http://www.onlinewebfonts.com/icon </metadata>
<g><g><g><path d="M281.4,178.4c21.4,0,38.7-20.6,38.7-45.9V75.3V55.9c0-25.4-17.3-45.9-38.7-45.9h-27.9c-21.4,0-38.7,20.6-38.7,45.9v19.4v57.2c0,25.4,17.3,45.9,38.7,45.9H281.4z"/><path d="M731.2,178.4c21.4,0,38.7-20.6,38.7-45.9V75.3V55.9c0-25.4-17.3-45.9-38.7-45.9h-27.9c-21.4,0-38.7,20.6-38.7,45.9v19.4v57.2c0,25.4,17.3,45.9,38.7,45.9H731.2z"/><path d="M366,94.2v38.3c0,50.7-38,91.9-84.6,91.9h-27.9c-46.7,0-84.6-41.2-84.6-91.9V94.2h-24.1c-65.4,0-118.4,53-118.4,118.4v658.9c0,65.4,53,118.4,118.4,118.4h710.5c65.4,0,118.4-53,118.4-118.4V212.6c0-65.4-53-118.4-118.4-118.4h-39.4v38.3c0,50.7-38,91.9-84.6,91.9h-27.9c-46.7,0-84.6-41.2-84.6-91.9V94.2H366z M918,323.9v537.5c0,33-26.8,59.7-59.7,59.7H141.7c-32.9,0-59.7-26.8-59.7-59.7V323.9H918z"/><path d="M224.4,528.2h551.3c16.9,0,30.6-21.7,30.6-48.5c0-26.8-13.7-48.5-30.6-48.5H224.4c-16.9,0-30.6,21.7-30.6,48.5C193.7,506.5,207.4,528.2,224.4,528.2z"/><path d="M224.4,681.4h551.3c16.9,0,30.6-21.7,30.6-48.5c0-26.8-13.7-48.5-30.6-48.5H224.4c-16.9,0-30.6,21.7-30.6,48.5C193.7,659.7,207.4,681.4,224.4,681.4z"/><path d="M224.4,834.4h333c16.9,0,30.6-21.7,30.6-48.5c0-26.8-13.7-48.5-30.6-48.5h-333c-16.9,0-30.6,21.7-30.6,48.5C193.7,812.7,207.4,834.4,224.4,834.4z"/></g></g><g></g><g></g><g></g><g></g><g></g><g></g><g></g><g></g><g></g><g></g><g></g><g></g><g></g><g></g><g></g></g>
</svg>